<svg xmlns="http://www.w3.org/2000/svg"><symbol id="super-domes" viewBox="0 0 256 256"><path d="M127.8 127.9V86.7l-29.3 41.2h29.3zm-2-45.2c-26.1 1.6-47.9 20.6-54.2 45.2h21.8z"/><path d="M129.9 4L22.4 66.1v124.1l107.5 62.1 107.5-62.1V66.1zm87.8 143.3h-26.9V172a1.9 1.9 0 0 1-2 2H70.9a1.9 1.9 0 0 1-2-2v-24.7H42a2.1 2.1 0 0 1 0-4.1h15.3V130a1.9 1.9 0 0 1 2-2.1h8a64.6 64.6 0 0 1 62.4-49.5c.2-.2.4-.2.8 0 30.2.2 55.2 21.4 62 49.5h7.9a1.9 1.9 0 0 1 2 2.1v13.2h15.3a2.1 2.1 0 1 1 0 4.1z"/><path d="M73 147.3h54.8v22.63H73zm58.9-64.8v45.4h56.3a60.5 60.5 0 0 0-56.3-45.4zM61.4 132h137v11.21h-137zm83.8 15.3h41.6v22.63h-41.6zm-13.3 0h9.2v22.63h-9.2z"/></symbol><symbol id="mecha-stilts" viewBox="0 0 256 256"><path d="M96.5 157.1h20.4v12.84H96.5zm41.6 0h20.4v12.84h-20.4zm-58.7 0h13v12.84h-13zm48.1-85c-23.9 0-43.8 14.4-44.9 40.7h89.7c-1-26.3-21-40.7-44.8-40.7zm-6.5 85h13v12.84h-13zm41.6 0h13v12.84h-13zM67.1 153h120.7v-36.1H67.1zm59.4-13.9h49.7a2.3 2.3 0 0 1 2.1 2.1 2.2 2.2 0 0 1-2.1 2h-49.7a2.2 2.2 0 0 1-2.1-2 2.3 2.3 0 0 1 2.1-2.1z"/><path d="M127.5 4L20 66.1v124.1l107.5 62.1L235 190.2V66.1zm64.4 151a1.9 1.9 0 0 1-2 2.1h-10.2v12.8h10.2a2.1 2.1 0 0 1 0 4.1H65.1a2.1 2.1 0 0 1 0-4.1h10.2v-12.8H65.1a1.9 1.9 0 0 1-2-2.1v-40.1a2 2 0 0 1 2-2.1h13.5c1-28.9 22.6-44.8 48.9-44.8s47.9 15.9 48.9 44.8h13.5a2 2 0 0 1 2 2.1z"/><path fill="#fff" d="M126.5 143.2h49.7a2.2 2.2 0 0 0 2.1-2 2.3 2.3 0 0 0-2.1-2.1h-49.7a2.3 2.3 0 0 0-2.1 2.1 2.2 2.2 0 0 0 2.1 2z"/></symbol><symbol id="space-bubbles" viewBox="0 0 256 256"><path d="M98.5 149.3H85l-17.9 21.2 2.8 4.1 34.5-18.1-5.9-7.2zm-24.9-14.6h111.5v10.6H73.6zm97.5-4.1a50.2 50.2 0 0 0 2.4-15.5 44.2 44.2 0 0 0-88.3 0c0 5.3.4 10.8 2.5 15.5z"/><path d="M128.3 4L20.7 66.1v124.1l107.6 62.1 107.5-62.1V66.1zm65.2 167.8l-4.7 6.7a2.2 2.2 0 0 1-2.7.6l-9.7-5.1H79.9l-9.8 5.1a2.2 2.2 0 0 1-2.6-.6l-4.7-6.7a2.2 2.2 0 0 1 .2-2.5l16.9-20h-8.3a1.9 1.9 0 0 1-2.1-2v-14.7a1.9 1.9 0 0 1 2.1-2h11.8a58 58 0 0 1-2.2-15.5 48.2 48.2 0 1 1 94.1 15.5h11.9a1.9 1.9 0 0 1 2 2v14.7a1.9 1.9 0 0 1-2 2h-10.4l16.7 20a2.3 2.3 0 0 1 0 2.5z"/><path d="M87.9 169.9h27.7l-8.4-10.2-19.3 10.2zm70.1-20.6l-6.1 7.2 34.7 18.1 2.8-3.9-17.9-21.4H158zm-17.1 20.6h27.7l-19.4-10.2-8.3 10.2zm-37.1-20.6l17.1 20.6h14.7l17.1-20.6h-48.9z"/></symbol></svg>